<?xml version="1.0" encoding="utf-8"?>
<!-- Generator: Adobe Illustrator 26.0.2, SVG Export Plug-In . SVG Version: 6.00 Build 0)  -->
<svg version="1.1" id="Layer_1" xmlns="http://www.w3.org/2000/svg" xmlns:xlink="http://www.w3.org/1999/xlink" x="0px" y="0px"
	 viewBox="0 0 384 432" style="enable-background:new 0 0 384 432;" xml:space="preserve">
<style type="text/css">
	.st0{fill:url(#SVGID_1_);}
	.st1{fill:url(#SVGID_00000127039638908011010040000015044252637392316071_);}
</style>
<g id="Layer_1_00000084528191799649445430000008795877312379900338_">
</g>
<g id="Layer_2_00000015344652484408564820000012783808568662292911_">
	<g>
		<g>
			<linearGradient id="SVGID_1_" gradientUnits="userSpaceOnUse" x1="213.76" y1="326.58" x2="213.76" y2="105.41">
				<stop  offset="0" style="stop-color:#E6E6E6"/>
				<stop  offset="1" style="stop-color:#1DA1F2"/>
			</linearGradient>
			<path class="st0" d="M134.6,326.6v-37.9l79.6-69.7c6-5.4,11-10.4,15.2-14.9s7.4-9.1,9.6-13.6s3.3-9.6,3.3-15
				c0-6-1.3-11.2-3.9-15.5s-6.2-7.6-10.9-10c-4.6-2.3-9.9-3.5-15.9-3.5c-6,0-11.3,1.2-15.9,3.7c-4.6,2.4-8.1,6-10.6,10.6
				c-2.5,4.6-3.8,10.2-3.8,16.8h-50c0-14.8,3.3-27.7,10-38.5c6.7-10.8,16.1-19.1,28.2-25c12.1-5.9,26.2-8.8,42.2-8.8
				c16.6,0,30.9,2.8,43.2,8.3c12.2,5.5,21.7,13.3,28.4,23.2s10.1,21.4,10.1,34.5c0,8.3-1.7,16.6-5,24.7s-9.3,17.2-18,27.1
				s-20.9,21.7-36.7,35.5l-26.1,24.1v1.4h88.4v42.5L134.6,326.6L134.6,326.6z"/>
		</g>
	</g>
	
		<linearGradient id="SVGID_00000001654001742631376790000017559616158928203697_" gradientUnits="userSpaceOnUse" x1="192.175" y1="431" x2="192.175" y2="1">
		<stop  offset="0" style="stop-color:#E6E6E6"/>
		<stop  offset="1" style="stop-color:#1DA1F2"/>
	</linearGradient>
	<path style="fill:url(#SVGID_00000001654001742631376790000017559616158928203697_);" d="M342.4,351c-33.1,31-77.5,50-126.4,50
		c-102,0-185-83-185-185S114,31,216,31c48.8,0,93.2,19,126.4,50h41c-4.8-5.9-9.9-11.6-15.3-17C327.4,23.4,273.4,1,216,1
		S104.6,23.4,64,64S1,158.6,1,216s22.4,111.4,63,152s94.6,63,152,63s111.4-22.4,152-63c5.4-5.4,10.5-11.1,15.3-17H342.4z"/>
</g>
</svg>
