<?xml version="1.0" encoding="utf-8"?>
<!-- Generator: Adobe Illustrator 26.0.2, SVG Export Plug-In . SVG Version: 6.00 Build 0)  -->
<svg version="1.1" id="Layer_1" xmlns="http://www.w3.org/2000/svg" xmlns:xlink="http://www.w3.org/1999/xlink" x="0px" y="0px"
	 viewBox="0 0 384 432" style="enable-background:new 0 0 384 432;" xml:space="preserve">
<g id="Layer_1_00000084528191799649445430000008795877312379900338_">
</g>
<g id="Layer_2_00000015344652484408564820000012783808568662292911_">
	<g>
		<g>
			<path d="M134.6,326.58v-37.93l79.58-69.67c5.97-5.4,11.04-10.35,15.23-14.86s7.39-9.06,9.59-13.64s3.3-9.57,3.3-14.97
				c0-6.04-1.31-11.2-3.94-15.5s-6.25-7.62-10.87-9.96c-4.62-2.34-9.91-3.52-15.87-3.52c-6.04,0-11.33,1.23-15.87,3.68
				c-4.55,2.45-8.08,5.98-10.6,10.6c-2.52,4.62-3.78,10.23-3.78,16.83h-49.96c0-14.84,3.34-27.66,10.01-38.46
				c6.68-10.79,16.07-19.12,28.18-24.98c12.11-5.86,26.19-8.79,42.24-8.79c16.55,0,30.93,2.77,43.15,8.31
				c12.21,5.54,21.68,13.26,28.39,23.17s10.07,21.4,10.07,34.46c0,8.31-1.67,16.55-5.01,24.72s-9.32,17.19-17.95,27.06
				s-20.86,21.7-36.7,35.48l-26.1,24.08v1.38h88.42v42.51L134.6,326.58L134.6,326.58z"/>
		</g>
	</g>
	<path d="M342.35,351c-33.09,30.99-77.54,50-126.35,50c-102.01,0-185-82.99-185-185S113.99,31,216,31c48.81,0,93.25,19.01,126.35,50
		h41c-4.78-5.9-9.88-11.59-15.32-17.03C327.42,23.36,273.43,1,216,1S104.58,23.36,63.97,63.97S1,158.57,1,216
		s22.36,111.42,62.97,152.03S158.57,431,216,431s111.42-22.36,152.03-62.97c5.44-5.44,10.54-11.13,15.32-17.03H342.35z"/>
</g>
</svg>
